<svg xmlns="http://www.w3.org/2000/svg" viewBox="0 0 32 32" fill="none">
  <defs>
    <linearGradient id="iconGradient" x1="0%" y1="0%" x2="100%" y2="100%">
      <stop offset="0%" style="stop-color:#3B82F6;stop-opacity:1" />
      <stop offset="100%" style="stop-color:#9333EA;stop-opacity:1" />
    </linearGradient>
  </defs>

  <!-- Background -->
  <rect width="32" height="32" rx="6" fill="url(#iconGradient)"/>

  <!-- Checklist Icon -->
  <path
    d="M8 6a2 2 0 012-2h3a2 2 0 002 2 2 2 0 002-2h3a2 2 0 012 2v20a2 2 0 01-2 2H10a2 2 0 01-2-2V6z"
    fill="none"
    stroke="white"
    stroke-width="1.5"
  />
  <path
    d="M12 6a2 2 0 012-2h4a2 2 0 012 2v0a2 2 0 01-2 2h-4a2 2 0 01-2-2v0z"
    fill="white"
    fill-opacity="0.2"
  />

  <!-- Checkmarks -->
  <path
    d="m11 14 2 2 4-4"
    stroke="white"
    stroke-width="1.5"
    stroke-linecap="round"
    stroke-linejoin="round"
  />
  <path
    d="m11 20 2 2 4-4"
    stroke="white"
    stroke-width="1.5"
    stroke-linecap="round"
    stroke-linejoin="round"
  />
</svg>
